<?xml version="1.0" encoding="UTF-8"?>
<svg version="1.1" xmlns="http://www.w3.org/2000/svg" width="64" height="64">
<path d="M0 0 C3 0.125 3 0.125 4 1.125 C4.28727578 5.43413667 3.99512373 7.13475253 2 11.125 C9.59 11.125 17.18 11.125 25 11.125 C25.495 16.075 25.495 16.075 26 21.125 C26.845625 21.62 27.69125 22.115 28.5625 22.625 C29.366875 23.12 30.17125 23.615 31 24.125 C31.75509738 27.54342533 31.94513329 30.74475859 31 34.125 C29.35 35.115 27.7 36.105 26 37.125 C25.67 41.085 25.34 45.045 25 49.125 C16.75 49.125 8.5 49.125 0 49.125 C-0.66 50.445 -1.32 51.765 -2 53.125 C-5.02169673 55.54235738 -6.98292565 57.03655875 -10.875 57.375 C-11.57625 57.2925 -12.2775 57.21 -13 57.125 C-12.67 54.485 -12.34 51.845 -12 49.125 C-16.29 49.125 -20.58 49.125 -25 49.125 C-25.09765625 46.09765625 -25.1953125 43.0703125 -25.29296875 40.04296875 C-25.69233653 36.91059411 -25.69233653 36.91059411 -28.51171875 35.55078125 C-29.33285156 35.08027344 -30.15398438 34.60976563 -31 34.125 C-31.94513329 30.74475859 -31.75509738 27.54342533 -31 24.125 C-29.34467377 23.10633771 -27.67739862 22.10689187 -26 21.125 C-25.67 17.825 -25.34 14.525 -25 11.125 C-17.08 11.125 -9.16 11.125 -1 11.125 C-1 10.135 -1 9.145 -1 8.125 C-1.99 7.795 -2.98 7.465 -4 7.125 C-4.04254356 5.12545254 -4.04080783 3.12458364 -4 1.125 C-3 0.125 -3 0.125 0 0 Z " fill="#C963DF" transform="translate(32,2.875)"/>
<path d="M0 0 C3 0.125 3 0.125 4 1.125 C4.28727578 5.43413667 3.99512373 7.13475253 2 11.125 C9.59 11.125 17.18 11.125 25 11.125 C25.495 16.075 25.495 16.075 26 21.125 C26.845625 21.62 27.69125 22.115 28.5625 22.625 C29.366875 23.12 30.17125 23.615 31 24.125 C31.75509738 27.54342533 31.94513329 30.74475859 31 34.125 C29.35 35.115 27.7 36.105 26 37.125 C25.67 41.085 25.34 45.045 25 49.125 C16.75 49.125 8.5 49.125 0 49.125 C-0.66 50.445 -1.32 51.765 -2 53.125 C-5.02169673 55.54235738 -6.98292565 57.03655875 -10.875 57.375 C-11.57625 57.2925 -12.2775 57.21 -13 57.125 C-12.67 54.485 -12.34 51.845 -12 49.125 C-16.29 49.125 -20.58 49.125 -25 49.125 C-25.09765625 46.09765625 -25.1953125 43.0703125 -25.29296875 40.04296875 C-25.69233653 36.91059411 -25.69233653 36.91059411 -28.51171875 35.55078125 C-29.33285156 35.08027344 -30.15398438 34.60976563 -31 34.125 C-31.94513329 30.74475859 -31.75509738 27.54342533 -31 24.125 C-29.34467377 23.10633771 -27.67739862 22.10689187 -26 21.125 C-25.67 17.825 -25.34 14.525 -25 11.125 C-17.08 11.125 -9.16 11.125 -1 11.125 C-1 10.135 -1 9.145 -1 8.125 C-1.99 7.795 -2.98 7.465 -4 7.125 C-4.04254356 5.12545254 -4.04080783 3.12458364 -4 1.125 C-3 0.125 -3 0.125 0 0 Z M-23 13.125 C-23 18.075 -23 23.025 -23 28.125 C-23.66 28.125 -24.32 28.125 -25 28.125 C-25 27.135 -25 26.145 -25 25.125 C-26.32 25.455 -27.64 25.785 -29 26.125 C-29.41746608 28.99864791 -29.41746608 28.99864791 -29 32.125 C-27.77796875 32.7746875 -27.77796875 32.7746875 -26.53125 33.4375 C-24 35.125 -24 35.125 -23.29296875 38.04296875 C-23.1953125 41.0703125 -23.09765625 44.09765625 -23 47.125 C-18.38 47.125 -13.76 47.125 -9 47.125 C-9.33 49.435 -9.66 51.745 -10 54.125 C-6.66272214 52.95244291 -4.22562513 51.93631596 -2 49.125 C-2 48.465 -2 47.805 -2 47.125 C6.25 47.125 14.5 47.125 23 47.125 C23.33 43.165 23.66 39.205 24 35.125 C26.475 33.64 26.475 33.64 29 32.125 C29.41746608 28.99864791 29.41746608 28.99864791 29 26.125 C27.68 25.795 26.36 25.465 25 25.125 C25 26.115 25 27.105 25 28.125 C24.34 28.125 23.68 28.125 23 28.125 C23 23.175 23 18.225 23 13.125 C7.82 13.125 -7.36 13.125 -23 13.125 Z " fill="#916CA1" transform="translate(32,2.875)"/>
<path d="M0 0 C0.33 0.99 0.66 1.98 1 3 C1.66 3 2.32 3 3 3 C3 2.01 3 1.02 3 0 C4.32 0.33 5.64 0.66 7 1 C7.3125 3.8125 7.3125 3.8125 7 7 C6.1853125 7.433125 5.370625 7.86625 4.53125 8.3125 C1.70304115 9.78480091 1.70304115 9.78480091 1.29296875 12.91796875 C1.25816406 13.99691406 1.22335938 15.07585938 1.1875 16.1875 C1.0946875 19.0646875 1.0946875 19.0646875 1 22 C-6.26 22 -13.52 22 -21 22 C-15 14 -15 14 -12 12 C-11.67 11.01 -11.34 10.02 -11 9 C-8.73723205 6.28467846 -6.00506603 4.80303962 -3 3 C-1.24850835 1.41754725 -1.24850835 1.41754725 0 0 Z " fill="#F2C0EE" transform="translate(54,28)"/>
<path d="M0 0 C0.375 2.125 0.375 2.125 0 5 C-1.72067524 7.33247088 -3.63211543 9.32346859 -6 11 C-6.99 11 -7.98 11 -9 11 C-9.33 11.99 -9.66 12.98 -10 14 C-10.66 14 -11.32 14 -12 14 C-12.103125 14.639375 -12.20625 15.27875 -12.3125 15.9375 C-12.539375 16.618125 -12.76625 17.29875 -13 18 C-13.99 18.33 -14.98 18.66 -16 19 C-16.68486725 20.32407669 -17.34870203 21.65909241 -18 23 C-19.9375 25.25 -19.9375 25.25 -22 27 C-22.99 27 -23.98 27 -25 27 C-25.2475 27.598125 -25.495 28.19625 -25.75 28.8125 C-27.18072525 31.31626919 -28.5691582 32.48072388 -31 34 C-31.66 34 -32.32 34 -33 34 C-31.59155282 30.78475695 -29.89655214 28.67816132 -27.375 26.25 C-26.42753906 25.32960938 -26.42753906 25.32960938 -25.4609375 24.390625 C-24.97882812 23.93171875 -24.49671875 23.4728125 -24 23 C-24.804375 22.608125 -25.60875 22.21625 -26.4375 21.8125 C-29 20 -29 20 -29.8125 17.3125 C-29.874375 16.549375 -29.93625 15.78625 -30 15 C-29.34 15 -28.68 15 -28 15 C-27.34 16.32 -26.68 17.64 -26 19 C-22.535 18.505 -22.535 18.505 -19 18 C-18.67 17.01 -18.34 16.02 -18 15 C-17.28328125 14.57074219 -16.5665625 14.14148437 -15.828125 13.69921875 C-12.23463342 11.54014577 -9.63979313 8.81915976 -6.75 5.8125 C-1.11851211 0 -1.11851211 0 0 0 Z " fill="#CE67E7" transform="translate(55,23)"/>
<path d="M0 0 C0.66 0.99 1.32 1.98 2 3 C3.91907273 5.08594862 5.59798564 6.39865709 8 8 C5.36 10.64 2.72 13.28 0 16 C-0.33 14.68 -0.66 13.36 -1 12 C-4.3 12 -7.6 12 -11 12 C-10.360625 11.236875 -9.72125 10.47375 -9.0625 9.6875 C-6.85767219 7.11753287 -6.85767219 7.11753287 -6 4 C-3.5 2.375 -3.5 2.375 -1 1 C-0.67 0.67 -0.34 0.34 0 0 Z " fill="#F0B6D7" transform="translate(24,38)"/>
<path d="M0 0 C0.69238281 1.77050781 0.69238281 1.77050781 1 4 C-0.21582031 5.83105469 -0.21582031 5.83105469 -2.078125 7.671875 C-2.74457031 8.33574219 -3.41101563 8.99960937 -4.09765625 9.68359375 C-4.80792969 10.36550781 -5.51820312 11.04742187 -6.25 11.75 C-6.94480469 12.44738281 -7.63960937 13.14476562 -8.35546875 13.86328125 C-13.59271037 19 -13.59271037 19 -17 19 C-17.33 20.32 -17.66 21.64 -18 23 C-19.98 23.33 -21.96 23.66 -24 24 C-22.18841447 19.28987763 -18.34228336 15.13768049 -13.8125 12.9375 C-11.19975915 11.58608232 -10.48742661 9.51718349 -9 7 C-6.22709996 3.81346293 -4.05767983 1.35255994 0 0 Z " fill="#F1C2FD" transform="translate(54,19)"/>
<path d="M0 0 C1.32 1.65 2.64 3.3 4 5 C3.06409496 6.1055189 2.12620142 7.20935453 1.1875 8.3125 C0.40439453 9.23482422 0.40439453 9.23482422 -0.39453125 10.17578125 C-1.87172469 11.85424679 -3.40039131 13.43882034 -5 15 C-5.66 14.34 -6.32 13.68 -7 13 C-7 12.01 -7 11.02 -7 10 C-7.66 9.67 -8.32 9.34 -9 9 C-6.03 6.03 -3.06 3.06 0 0 Z " fill="#CD68E8" transform="translate(34,28)"/>
<path d="M0 0 C0.721875 0.268125 1.44375 0.53625 2.1875 0.8125 C1.25475891 1.94144876 0.31609878 3.06550876 -0.625 4.1875 C-1.14707031 4.81398438 -1.66914063 5.44046875 -2.20703125 6.0859375 C-3.8125 7.8125 -3.8125 7.8125 -6.8125 9.8125 C-7.625 7.625 -7.625 7.625 -7.8125 4.8125 C-4.05559392 -0.27037293 -4.05559392 -0.27037293 0 0 Z " fill="#F1C2FE" transform="translate(29.8125,44.1875)"/>
<path d="M0 0 C0.66 0 1.32 0 2 0 C2.66 1.32 3.32 2.64 4 4 C7.465 3.505 7.465 3.505 11 3 C11.33 2.01 11.66 1.02 12 0 C12.66 0 13.32 0 14 0 C13.6875 2.375 13.6875 2.375 13 5 C9.50875983 7.32749345 8.10777749 7.50299316 4 7 C1.625 5.1875 1.625 5.1875 0 3 C0 2.01 0 1.02 0 0 Z " fill="#9770A9" transform="translate(25,38)"/>
<path d="M0 0 C1.32 0.66 2.64 1.32 4 2 C4.66 1.34 5.32 0.68 6 0 C6.625 2.375 6.625 2.375 7 5 C6.34 5.66 5.68 6.32 5 7 C2.375 6.625 2.375 6.625 0 6 C-0.38218767 4.34385343 -0.71395102 2.67542976 -1 1 C-0.67 0.67 -0.34 0.34 0 0 Z " fill="#9471A5" transform="translate(36,26)"/>
<path d="M0 0 C1.32 0.66 2.64 1.32 4 2 C4.66 1.34 5.32 0.68 6 0 C6.625 2.375 6.625 2.375 7 5 C6.34 5.66 5.68 6.32 5 7 C2.375 6.625 2.375 6.625 0 6 C-0.38218767 4.34385343 -0.71395102 2.67542976 -1 1 C-0.67 0.67 -0.34 0.34 0 0 Z " fill="#926CA4" transform="translate(22,26)"/>
<path d="M0 0 C0.66 1.32 1.32 2.64 2 4 C-2.30769231 8.92307692 -2.30769231 8.92307692 -5.8125 9.3125 C-6.534375 9.209375 -7.25625 9.10625 -8 9 C-7.04270084 7.87411986 -6.08412105 6.7493285 -5.125 5.625 C-4.59132813 4.99851562 -4.05765625 4.37203125 -3.5078125 3.7265625 C-2.38567993 2.44163349 -1.20628025 1.20628025 0 0 Z " fill="#CE65E9" transform="translate(25,41)"/>
<path d="M0 0 C0.33 0 0.66 0 1 0 C1 2.64 1 5.28 1 8 C-1.64 8 -4.28 8 -7 8 C-6.02133662 6.85373678 -5.04205413 5.70800212 -4.0625 4.5625 C-3.51722656 3.92441406 -2.97195312 3.28632812 -2.41015625 2.62890625 C-1.63204305 1.73008851 -0.84063472 0.84063472 0 0 Z " fill="#CB5DE7" transform="translate(54,42)"/>
<path d="M0 0 C0.33 1.32 0.66 2.64 1 4 C-0.43359375 5.921875 -0.43359375 5.921875 -2.4375 7.75 C-3.09621094 8.36359375 -3.75492188 8.9771875 -4.43359375 9.609375 C-4.95050781 10.06828125 -5.46742187 10.5271875 -6 11 C-6.99 10.34 -7.98 9.68 -9 9 C-6.03 6.03 -3.06 3.06 0 0 Z " fill="#EEB9FC" transform="translate(34,28)"/>
<path d="M0 0 C0.99 0.33 1.98 0.66 3 1 C2.195625 1.763125 1.39125 2.52625 0.5625 3.3125 C-2.16799024 5.79430898 -2.16799024 5.79430898 -3 9 C-3.99 8.67 -4.98 8.34 -6 8 C-5.25 5.5625 -5.25 5.5625 -4 3 C-1.875 2.1875 -1.875 2.1875 0 2 C0 1.34 0 0.68 0 0 Z " fill="#EFC9ED" transform="translate(43,20)"/>
<path d="M0 0 C0.99 0.33 1.98 0.66 3 1 C1.63016497 4.16115776 1.0109362 4.9927092 -2 7 C-2.99 6.01 -3.98 5.02 -5 4 C-2.6875 1.9375 -2.6875 1.9375 0 0 Z " fill="#CE69E8" transform="translate(45,21)"/>
<path d="M0 0 C0.625 1.875 0.625 1.875 1 4 C0.34 4.66 -0.32 5.32 -1 6 C-1.99 6 -2.98 6 -4 6 C-2.84826645 3.53199953 -1.95216435 1.95216435 0 0 Z " fill="#F0BBF4" transform="translate(24,38)"/>
</svg>
